/* XPM */
static char *_bb076b6e21a4f9ea3342d6f91ceed4a9khMhKxddGNr0qO4[] = {
/* columns rows colors chars-per-pixel */
"64 64 256 2 ",
"   c #171107",
".  c #291B15",
"X  c #2C170E",
"o  c #38251A",
"O  c #2D2B16",
"+  c #2C1C29",
"@  c #1A2E32",
"#  c #25282A",
"$  c #282837",
"%  c #303130",
"&  c #172A22",
"*  c #4B2C16",
"=  c #493625",
"-  c #503232",
";  c #6A392E",
":  c #621F1A",
">  c #334E0F",
",  c #0D4F33",
"<  c #305230",
"1  c #326935",
"2  c #05633F",
"3  c #6C7015",
"4  c #594236",
"5  c #504D30",
"6  c #79452A",
"7  c #684738",
"8  c #784938",
"9  c #6E4E35",
"0  c #4C6F2F",
"q  c #6E732D",
"w  c #5B550F",
"e  c #15394A",
"r  c #382A55",
"t  c #2F2D49",
"y  c #153E68",
"u  c #382F56",
"i  c #463456",
"p  c #563758",
"a  c #4D2D4B",
"s  c #673759",
"d  c #78375B",
"f  c #732D56",
"g  c #563764",
"h  c #503168",
"j  c #793666",
"k  c #713464",
"l  c #114656",
"z  c #10526F",
"x  c #2F4F6E",
"c  c #1F624C",
"v  c #72524A",
"b  c #706E4B",
"n  c #5D5558",
"m  c #931018",
"M  c #B70608",
"N  c #B90713",
"B  c #B2100F",
"V  c #B42D17",
"C  c #8E3029",
"Z  c #A02721",
"A  c #C40F13",
"S  c #C7332D",
"D  c #C62420",
"F  c #946F0D",
"G  c #AF7211",
"H  c #964A2C",
"J  c #99563A",
"K  c #8C4D32",
"L  c #A85738",
"P  c #AD522D",
"I  c #937031",
"U  c #B6653A",
"Y  c #AC6D2E",
"T  c #965817",
"R  c #CC4E30",
"E  c #CD6D35",
"W  c #CA6611",
"Q  c #8A345A",
"!  c #873769",
"~  c #95396A",
"^  c #973874",
"/  c #8B3773",
"(  c #A43A79",
")  c #B13975",
"_  c #AD3856",
"`  c #885847",
"'  c #975946",
"]  c #8E5450",
"[  c #A85D4B",
"{  c #98664B",
"}  c #9A6856",
"|  c #8C6C52",
" . c #A76445",
".. c #B76A46",
"X. c #A56A59",
"o. c #A8755B",
"O. c #B67252",
"+. c #9B4476",
"@. c #93466C",
"#. c #A94874",
"$. c #B74977",
"%. c #AC496E",
"&. c #997667",
"*. c #986F68",
"=. c #A97867",
"-. c #B57B68",
";. c #AB706B",
":. c #C86A47",
">. c #D47B48",
",. c #C8744E",
"<. c #C64C79",
"1. c #D36958",
"2. c #6F8E0E",
"3. c #7AA90D",
"4. c #55922C",
"5. c #6F8C2F",
"6. c #75AA2A",
"7. c #55971D",
"8. c #60855A",
"9. c #3B942A",
"0. c #94890A",
"q. c #A98809",
"w. c #B59110",
"e. c #90A909",
"r. c #B2A90E",
"t. c #91912F",
"y. c #AC9430",
"u. c #92A82B",
"i. c #B2AE32",
"p. c #C69907",
"a. c #D69906",
"s. c #CD8C0F",
"d. c #E89A09",
"f. c #CAA404",
"g. c #D7A704",
"h. c #D6AE11",
"j. c #E5AA02",
"k. c #E8B704",
"l. c #EFB114",
"z. c #CA9131",
"x. c #CAB22D",
"c. c #E8A42B",
"v. c #AECA0B",
"b. c #CDC537",
"n. c #EDC61E",
"m. c #958E46",
"M. c #B4B045",
"N. c #B6856C",
"B. c #AA8774",
"V. c #B88977",
"C. c #B9947C",
"Z. c #AA886E",
"A. c #A2975D",
"S. c #D4874E",
"D. c #C6BA46",
"F. c #CCBD4D",
"G. c #C7957C",
"H. c #C88E75",
"J. c #E98F4B",
"K. c #CFC74B",
"L. c #DFD355",
"P. c #0F558F",
"I. c #056A91",
"U. c #0759A7",
"Y. c #066EB2",
"T. c #2E5890",
"R. c #125EC2",
"E. c #43528B",
"W. c #B73A89",
"Q. c #B13889",
"!. c #9C3685",
"~. c #C53A8D",
"^. c #B84687",
"/. c #B1478D",
"(. c #AB6891",
"). c #C44788",
"_. c #C74495",
"`. c #D34F8E",
"'. c #D54E96",
"]. c #068DB2",
"[. c #3F9DB7",
"{. c #689299",
"}. c #08A2CE",
"|. c #64ACCE",
" X c #BC9784",
".X c #AD9590",
"XX c #B5A897",
"oX c #A8A7AA",
"OX c #ADADB2",
"+X c #B3B2B6",
"@X c #B8B8BB",
"#X c #B1B0B0",
"$X c #9D9B9F",
"%X c #C69885",
"&X c #D1988B",
"*X c #D8A996",
"=X c #CFAC94",
"-X c #E3AE9A",
";X c #D9B8A7",
":X c #CEB6B1",
">X c #E4B8A8",
",X c #E8B3AD",
"<X c #D7949A",
"1X c #B9C3B9",
"2X c #B0C896",
"3X c #D8C4B2",
"4X c #EBCBB7",
"5X c #E9C39C",
"6X c #BDBDC2",
"7X c #B7B7C4",
"8X c #B8B5CD",
"9X c #C1BEC4",
"0X c #C8BAC8",
"qX c #D4B8CE",
"wX c #D59FC1",
"eX c #BEC2C5",
"rX c #B8C9D1",
"tX c #A4C4DE",
"yX c #C2C1C6",
"uX c #C5C4CA",
"iX c #C9C6CB",
"pX c #CACACE",
"aX c #C7C9CB",
"sX c #D6CACB",
"dX c #CCCDD2",
"fX c #C5CAD0",
"gX c #D3CDD3",
"hX c #CDD1D4",
"jX c #CCD4DA",
"kX c #D1D2D6",
"lX c #D4D5DA",
"zX c #D9DADE",
"xX c #D8D7DB",
"cX c #CED1C9",
"vX c #E9D5C8",
"bX c #F5D8C8",
"nX c #F0D8D2",
"mX c #F9E5D6",
"MX c #F1E5D0",
"NX c #DBDDE3",
"BX c #D2D5E6",
"VX c #CBD2E1",
"CX c #E2DDE3",
"ZX c #DDE1E5",
"AX c #DCE7E9",
"SX c #DEE0F5",
"DX c #E3E5EA",
"FX c #E5E7EA",
"GX c #EBECF2",
"HX c #E6EBF1",
"JX c #EDF2F5",
"KX c #ECF7F9",
"LX c #F2F5FA",
"PX c #FCFBFD",
"IX c #F5F6F7",
"UX c #F8EDEB",
/* pixels */
"I.@ z I.5 i.x.i.i.i.r.i.b.i.3 q w.Y J ; = 6 K 6 P  .- & , 2 2 , 2 2 2 2 , , @ t r h h r $ @ @ $ $ + o o m B B B M D S 1.<XiXgXcX",
"z & l P.0 u.i.x.i.i.x.b.i.u.q y.y.P K ; 6 H H 6 H L L : = % % O % % < % @ t r i u i i r t t @ # @ t % . : m N M N N B R ,.;XsXsX",
"e @ l y 1 5.6.i.i.x.u.3 t.u.3.t.Y H ; ; H P H 6 K K  .K 7 4 o o o . . o a g h h i r r r t t % % t u t + : m N M M M M W W S.=X3X",
"e y P.y O 0 9.4.u.u.u.t.i.6.7.I P ; - 6 J P H H 6 ` v 4 = O . .         . o a h i r r u t % $ t 4 p u $ o m N B N A D R R :.*X:X",
"P.T.P.z % q 7.9.7.7.u.b.u.5.I U H 7 ; P L P H K | Z.| 9 9 = * X X X .         % h r r t t $ # @ 4 a t $ o m B B B A D S S R &X:X",
"U.P.P.y % I i.6.4.6.i.u.4.q E P 6 7 K R L P H 9 B.| 7 - 4 o o = X X X   . .   X a a r t t $ # # % $ a - : : m A M M A A A V 1.*X",
"U.U.z @ # 9 t.i.i.i.t.3 5.Y E H 6 K J E P E H b *.; * * = . . = o o X X O . o o = - r t $ # # $ + t a C m : : m N N A A A D 1.H.",
"Y.P.@ & & 5 q t.i.x.u.4.q E W K L H J E L E K | v | b ` 8 K 8 7 9 = o . X X o o o = % $ $ t $ % $ + a C W G * : A A A M B D R >.",
"Y.l # @ & 5 t.3 t.t.7.5.I s.T K J ; E >.P E o.B.C.%X%X%X-.=.N.o.{ 8 4 * o * * = = = - $ t p a t $ + - H W s.T : Z A A N N D D R ",
"P.z $ l l % 5 0 t.0 4.5.Y s.K L P K E E P E &.=X;X;X*XG.H.N.o.=.X.} | | ` 9 7 ; - 4 - i a h a t t r n F s.a.G 6 : B M M B B A V ",
"P.y t I.Y.b q < 5 0 7.I z.W 6 L H K E E P ..Z.=X3X3X>X*X&XH.o.o.X.X.X.X.} } | 7 4 = - g p h a t r i n w.a.s.s.F : m N M B M M N ",
"y $ e ].Y.m.b.t.5 0 6.Y c.G 6 P 8 6 E z.P O. X%X4X4X;X*X&XH.-.X.{ ' } { } =.| v 4 * o g g i r t a i 4 s.d.s.h.q.* : N M B M N M ",
"e @ l ].Y.b b.L.t.5.u.Y d.U 8 H ; 8 :.z.U  ..X:XvXbX*X*XG.-.X.X.X.' { } X.=.} v 7 = = g p i t i p g I g.d.s.p.h.6 : B M B M N M ",
"e l z z z b M.x.i.i.i.y.d.Y K J J H E J.E  ..XnXmX>X=X*X%XH.-.o.X.X.} X.X.-.N.=.v 4 - h p i r p g v w.p.p.a.p.x.I : B M B M N M ",
"e z I.@ & 5.M.i.t.K.b.y.l.G K U E K L >.R ' XXmX=X| 7 - ; } H.-.X.` 7 - ; 8 =.C.b 4 4 h p i i p v q.p.F 0.p.p.s.I ; B A B M N B ",
"+ e Y.z # 0 K.K.u.L.K.y.l.s.K L L 8 ; R S ` #XbX X&.*.v 9 } &X=.` * . . o = 7 Z.&.4 4 h g i p n Y j.w.Y 0.0.w.p.T C B A B B D R ",
"# # I.z @ z b t.t.L.K.z.a.c.K - 8 - - f Q ! =XnX4X>XB.8 K -.-X-.] 7 7 v ` } } =.Z.7 p i p p n Y j.w.q.w.w.2.0.w.T Z N A M A :.1.",
"# @ I.z & l z x q K.L.x.a.c.J % - a ! Q (.,X;XmX;XB.B.- ; 8 -XO.8 * = o 4 8 &.C.&.7 v p h v y.j.w.t.i.w.2.5.t.I H V N A A S 1.1.",
"@ l z e . @ z x 0 M.L.F.Y P H ; f d Q.W.;.&XbXvX3X>X Xv ; V.>X[ ' ; 4 4 b ` } N.Z.{ ;.n q p.g.w.t.y.M.x.u.5.q I C A A S R P S D ",
"I.z $ # e l z z < y.L.M.J C _ ) j f !.~.$.1.bXvX>XH.O.O.&X,X-XX.[ ' ` 8 ` } X.=.Z.-.} t.b.x.0.t.M.F.i.i.i.i.t.G H m D E y.Y V B ",
"Y.l @ y I.].Y.[.A.t.t.9 _ _ ) ~.s a ! ~.^.&XnXMX4XG.N.V.>X4X*XO.X.X.] K K ' o.N.Z.X.N.D.t.m.t.M.i.K.K.t.6.y.s.h.Y : C G r.q.F V ",
"e @ e P.].I.P.T.| 5 - a ) ~.^ W.! a a ^ ( ).mXmX4X*X%X-.>X4X&X;.=.=.{ ' X.X.N.C.C.X.| q t.M.M.i.D.i.D.M.5.w.j.f.w.T = w e.e.q.L ",
"l z e l I.I.l e p s j ! ^ W.!.W.~.f a a ~ #.vXmXnX;XX.[ *X4X-X;.=.=.] ` ' V.%X X X=.5 9 M.i.K.D.M.K.D.D.w.g.k.f.w.G w > 2.r.i.N.",
"l l # e I.Y.x s ~ @.! ^ ! ).) ) ~.W.! @._ ^.bXmXbX%X' &X3X3X*Xo.} X.} ` ' -.C. XC.-.v 4 | M.i.K.F.x.i.y.g.j.a.f.p.F F w w u.A.8.",
"$ $ x Y.Y.z j Q.#.#.~ +.j ^ _.) W._.) $.+.+.,XbX4XX. XmXvX-XN.-.o.X.V.=.` X.H.C.-.V.O.K 9 { A.D.K.M.t.w.j.a.f.h.q.F F > O 0 0 < ",
"e P.R.Y.z s ~ ^.#.<.#.~ ! / Q._./.#.#.#.%.$.@.3XMXV.%XXX3X*X-.' ' X.=.*.| o.V.C.&.{  .9 7 K { y.i.y.w.j.j.p.h.p.F G 3 1 O < 1 < ",
"U.U.Y.U.x f d ( ).$.<.~ +.^ j ( ( $.%.%.%.~ f :XmX*XN.8 %X4X=XB.=.&.; ; } N.N.%XO...:. .8 ` J L A.h.j.j.f.h.c.0.F T q q > < 1 1 ",
"Y.U.U.E./ j k ~ ).^.<.) ^ ! j ! %.$.%.%.$.~ s (.UX4X*X4X;X&X;.=.X.] =.=.=.N.C. X.. ...,.' K J ' S.h.g.a.h.b.w.q.F F w.3 O , 1 0 ",
"Y.Y.T.k ) / / ! ).).).`.( ! ~ #.%.$.%.Q / ^ ! /.nXbX4X3XmX*XX.X.] ;.V.=.N.V.V. X.. . ...J H ..L K z.j.k.h.r.w.G 0.a.p.0 @ & 1 1 ",
"R.T./ j /.!.! ! ) `.~.'.).#.#.$.#.%.~ d s ^ ~.~ XXMX4X>X;X>XG.X.} X.=.=.C.C.G.-.U :. .U J Y >.U 8 Y p.f.p.f.w.q.f.j.q.3 > & < c ",
"x g ~.!._.) ! ! ^ _._._.$.%.%.$.$.~ j j ! ^.( - n MX4XbX,X*X*XN.X.' } V.C.B.C.' 1.,. .O.J 8 L U ' I i.h.g.f.q.p.j.p.q.0.> @ < 1 ",
"# p _.Q.^.`.~ j ! /._.!.@.$.%.#.Q ! j / _.^ p - j mXbXbXvX4XG.-.-.o.Z.Z.V. X%X .U E ..:.[ v ..>...{ z.h.p.w.g.j.f.w.q.q % < 1 1 ",
"a a W./.( '.).d d ! W.) #.$.#.@.~ k @.).Q.s - - +.mXMXbX4X;XB.&.=.} =.-.V. XG.S.U >.[ ..' v U :.:.E I i.M.x.g.p.p.G F q 1 0 0 4.",
"s s ^ ).#.`.`.~ ! d ! $.$.#.%.d s ~ /./.s % u e n mXmXvXvX4X%Xo.} } N.C. X XG.S.E >. .U ' v  .O.,.U m.M.i.f.g.f.w.q.M.u.2.2.6.4.",
"j / ! ).$.<.`.^./ j @.%.%.+.Q s f <.^.s l I.}.].{.UXmXnXMXbX>XH.=.Z.C.%X X XG.N.:.:.U ..J v J ....U I y.x.h.f.f.g.f.w.2.2.3.3.2.",
"/ ^ ! $.).$.`.'.( ~ $.%.d ! d s ^.$.s z ].}.].I.1XUXMXnXbXMX4X;XC.V.C.C. X X%XV.S.E O.[ ` 9 O.>.>.:.L m.D.x.p.x.h.f.w.w > 3.3.3.",
"@.! ! ~ _.).).'.#.$.#.d s f d #.).n P.}.}.].I.{.mXmXMXvX4XbXvX;XN.V.C. X X X%XC.o.U :...J 6 ..,.,.,...| t.i.x.x.h.g.g.q.> 2.v.v.",
"$.j ! ! _.'.^.).$.$.s a j j +.<.j T.].}.].].{.bXbXMXmXvX4XvX4X=XN.V.C. X%X X X XB.O. .} ` L >.S.S.J.>.I t.x.h.g.k.k.k.g.F 3 e.v.",
"`.~ / / !.).^.$.$.n p j j +.<.! x Y.}.}.|..X5XnXbXmXmXvX4X4X4X=XC.C.C. X%X X X XN.=.| b $XZ.H.S.S.S.U { x.l.h.n.n.k.j.j.w.3 e.v.",
"'.) ^ ^ j ^ ^.$.d a s d @.`.~ a T.|.tXAXPX=.H.4XvXmXMXvX4X;X;X=XC.C.C.C.%X XC.V.B.-.X.*.9X$X$X.XV.O.E ' u.M.x.x.h.k.k.k.f.2.2.v.",
"'._.! d j $.$.@.s s f ( ).~ @.oXaXsXnXAXPX:X} H.;X4XMX4X;X=X*X%XC.V.V.C.V.V.V.=.} } v .X@X$XoX$X$XoX.Xm.M.K.n.l.k.k.h.j.k.0.2.e.",
"^./.k / ).+.s a +.! ^ ~.^.$XhXCXiXzXxXDXGXPX.X' N.*X4X;X>X&XC.%X X%XV.=.=.} ` ` ` ` v 3X#XoXoXOXOX$XOXOXXXF.b.n.k.l.k.k.j.0.> 0 ",
"~ ^ W.^.^ p s ^ k ( `.wXxXxXsXcXCXzXAXxXHXKXFX X-.H.V.%X*XG.N.V.%X;X X} =.X.} =.=.*.@XaXoX+X+X+X+X+X@X+X7X7XXXD.k.k.k.p.r.0.> 1 ",
"_.^.W./ j f ! ^ (.qXHXZXkXsXgXNXNXkXzXDXHXZXJXFX=XZ.G.H.%XV.=.o.%X*X%X=.=.-.-.-.&.XXaX@XOX@X6X+X@X@X@X7X@X#XOX8X;Xh.a.p.r.2.< 0 ",
"W./.+.j s ^ @.qXKXFXxXpXhXdXdXkXlXzXxXZXZXCXNXHXAXXX*.H.G.Z.N.;.%XG.%XH.=.;.=.*..XaX6X6X@X:X6X7X6X7X6XeX+X@X7X7XtX:Xg.k.r.0 < < ",
"/.^ / j j f 9XPXLXFXlXaXgXsXaXhXpXsXCXzXGXFXZXZXBXJX:X*.=.-.V.V.V.&XV.-.B.*.&.XXaXaX@X+X@X+X+X@X@XdXdXeX@X@X@X@X1XVXL.k.t.0 < c ",
"^ ! k ^ f oXPXIXGXCXZXxXhXxXgXyXxXpXaXgXxXDXFXGXGXNXZXCXXX;.=.B.%X XV.V.=..X#XuX6XyXOX6X@X@XyX@XeXzXdX@XuXyXyXyXiXdXdXA.5.0 c x ",
"~ k j Q #.KXPXPXIXHXAXxXxXAXZXxX9XzXNXkXuXgXlXzXDXFXDXBXlXsX.X=.=.V.V..X=X0XfXrXeX7XaX6X@X@X@X:XjXjXeX+XyXuXuXeXiXjXhXoX0 < # , ",
"j ! ^ Q.wXPXIXLXJXGXDXxXdXxXZXLXlXyXzXZXzXdXdXhXkXlXZXDXlXdXhXdX+X+X6XiXdXuX6X6X@X6XuXuX6X6X@X@XlXpX@XOXuXkX6XuXaXkXkXrX0 0 < @ ",
"/./._.( gXPXPXJXJXJXzXxXpXpXlXGXIXlXdXNXNXkXlXpXkXdXhXlXlXkXkXdXlXkXkXkXdXuXeX6X6XyXyXuXuXuXuXyXpXpX@XOXyXdX@XpXcXdXkXjXA.6.0 < ",
"_.Q.^ j JXPXPXIXGXJXlXkXpXiXkXHXPXGXhXzXzXkXlXpXkXdXkXlXkXpXpXdXkXkXdXaXyXyXyXyX6X6X6X9XuXpXpXiXyXdX+XoXyXyX@XdXaXdXlXhX2X6.4.< ",
"! ! Q .XPXIXKXKXGXGXlXyXdXdXzXDXJXPXzXdXkXkXlXkXkXzXNXNXdXyXyXdXdXdXaXuXyXyX6X6X6X6X6X6XyXuXiXpXuXkXOXoXiX@X@XdXaXlXkXdXhX8.4.1 ",
"~ / j 9XPXUXPXHXGXGXDX6XuXkXlXZXPXJXkXdXkXzXzXzXNXZXDXzXkXpXaXpXhXdXdXdXuXeX6X6XyXyXyXyX6X6XyXyXuXdX+XoXaXoX9XkXaXdXiXdXSX{.1 1 ",
"! !./.UXIXJXPXCXDXGXGXpX@XlXlXDXPXlXdXNXNXNXZXNXNXZXNXkXdXpXuXiXdXdXdXpXuXyXyXyXyXyXyX9XyXyXyXyXyXuX@XoX6XoXuXkX1XaXyXcXzXoX1 1 ",
"/.Q.(.LXIXJXPXFXxXFXGXxX@XdXlXGXDXlXZXHXDXNXZXZXZXZXNXkXdXuXyXuXdXkXkXdXuXyXyXeXyXyXyX9XyXuXuXuXuXuX9XOX+XoXpXyX6XpXdXkXcXeX0 1 ",
"W.%.=XPXUXFXIXKXhXNXFXzX6XuXzXGXlXJXLXDXFXNXZXZXZXZXlXkXhXuX9XyXpXkXkXdXuXuXyX6XyXuXuXyXyXyXuXiXdXpXyX+XOXOXpX+X8XcX8XBXkXeX8.1 ",
"@.' vXKXJXDXIXIXzXkXGXDXyX@XFXDXLXJXGXHXDXZXNXNXNXNXlXdXdXuX9XyXdXkXkXdXpXuXuXyXyXuXyXaXyXyXyXpXkXhXpX@XoX@XyX+XyX9X9XjXjXgX$X1 ",
";.O.CXKXIXNXJXJXFXpXNXHXaXeXGXJXIXLXGXHXDXZXNXNXNXNXlXdXpXyXyXuXdXlXzXhXpXuXyX9X9XyX9XuX9XyXyXdXkXkXhX6XoX6X@X@XaX:XyXjXdXpXoX1 ",
"1.H.UXHXPXlXHXJXLXdXaXJXdXpXJXIXPXLXGXFXDXDXZXNXNXzXlXdXuXyXyXuXdXzXNXlXpXuXuXyXyXyX9XuXyXuXaXdXlXlXlX6X$X6XOX6XyX@XiXkXdXuXeX1 ",
"1.-XLXFXPXzXNXJXIXNX6XDXlXzXPXPXPXLXGXHXDXDXZXNXNXzXlXdXyX6XyXyXdXNXDXlXdXaXuXyXuXuXyXaXuXaXpXdXkXlXlX@XoX@X+XyX@X@XgXlXpX9XhX8.",
":.bXKXDXPXCXjXFXGXJXeXdXDXGXPXPXLXLXGXHXDXZXNXNXNXzXlXkXuX9XyX9XhXNXDXzXdXpXiXuXuXuXyXuXuXaXpXdXhXlXlX+XOX+X@X6X+X6XgXkXuX6XjX$X",
"..CXFXZXIXDXdXCXDXPXhX6XDXLXPXIXLXLXGXHXDXDXZXNXNXzXlXdXuXyXyXyXhXNXDXNXdXpXuXuXuXuXyXuXuXpXdXhXkXlXdX+X+XOX@X+X+XuXdXdXyX9XkX7X",
"H.FXzXNXLXFXdXxXZXJXDX6XzXLXJXJXIXLXJXHXFXDXZXNXNXzXkXdXaXyX9XyXdXNXFXNXdXuXuXiXaXuXyXiXaXdXdXhXlXkXeXOXoX+X@XOXeXaXdXaX6XeXaXhX",
"-XGXxXCXLXFXdXhXDXZXJXyXdXLXHXJXPXLXJXHXHXDXZXZXNXzXkXiXuXyX6XyXdXzXFXNXdXuXuXdXiXuXyXiXaXpXpXdXlXdX+XoX$X@X+XOXaXyXdXyX6X1XeXkX"
};
