/* XPM */
static char *a0b11df7b5644024b8baf0ecdeb4bc9fxxkiM7N8WHcQzRkI[] = {
/* columns rows colors chars-per-pixel */
"64 64 256 2 ",
"   c #030304",
".  c #02050B",
"X  c #040A0D",
"o  c #090907",
"O  c #150A0B",
"+  c #050B13",
"@  c #0A0C15",
"#  c #070B18",
"$  c #0B121C",
"%  c #091218",
"&  c #15141A",
"*  c #0F100D",
"=  c #291814",
"-  c #372419",
";  c #322B11",
":  c #0C1524",
">  c #0D1629",
",  c #0D1A2B",
"<  c #0A1826",
"1  c #121C2D",
"2  c #141825",
"3  c #0D1D33",
"4  c #121E31",
"5  c #171B36",
"6  c #0E0D24",
"7  c #2E1C26",
"8  c #17242A",
"9  c #142234",
"0  c #1B2435",
"q  c #15253A",
"w  c #19253A",
"e  c #1B2A3D",
"r  c #182A37",
"t  c #0C2734",
"y  c #272828",
"u  c #362928",
"i  c #36372B",
"p  c #272938",
"a  c #362B36",
"s  c #293636",
"d  c #373739",
"f  c #25342B",
"g  c #16231A",
"h  c #4C2917",
"j  c #453528",
"k  c #583728",
"l  c #473736",
"z  c #573738",
"x  c #4B2B2F",
"c  c #663929",
"v  c #6E3A33",
"b  c #602C17",
"n  c #364638",
"m  c #5A4438",
"M  c #4E4932",
"N  c #684537",
"B  c #784837",
"V  c #795538",
"C  c #71492C",
"Z  c #756B30",
"A  c #1B2B44",
"S  c #14324A",
"D  c #242C46",
"F  c #22334B",
"G  c #273446",
"H  c #283955",
"J  c #353A4B",
"K  c #2F3D63",
"L  c #493A48",
"P  c #583949",
"I  c #5C3A56",
"U  c #4B2E4C",
"Y  c #66394B",
"T  c #673956",
"R  c #773A5A",
"E  c #6A344B",
"W  c #763C65",
"Q  c #6F3C6B",
"!  c #184854",
"~  c #2A435B",
"^  c #37445B",
"/  c #2D4D50",
"(  c #13546E",
")  c #2D4763",
"_  c #374968",
"`  c #3C5577",
"'  c #36516F",
"]  c #10687D",
"[  c #2D6775",
"{  c #564547",
"}  c #4C4E4B",
"|  c #6A4658",
" . c #714D4C",
".. c #756C4D",
"X. c #445779",
"o. c #4C516D",
"O. c #7A4366",
"+. c #6E4670",
"@. c #516A77",
"#. c #6B6C72",
"$. c #5A635C",
"%. c #99302C",
"&. c #DA1A20",
"*. c #854937",
"=. c #875538",
"-. c #97593B",
";. c #8B4E2F",
":. c #A85938",
">. c #AF5936",
",. c #946A38",
"<. c #A76839",
"1. c #B86939",
"2. c #BA7439",
"3. c #AD6E30",
"4. c #97511E",
"5. c #C67638",
"6. c #D77939",
"7. c #CF6F34",
"8. c #DE6A37",
"9. c #843B5A",
"0. c #883C68",
"q. c #993C76",
"w. c #903B6E",
"e. c #A93E76",
"r. c #884B45",
"t. c #8A5846",
"y. c #965947",
"u. c #975C56",
"i. c #8F4F51",
"p. c #A75B48",
"a. c #AF584D",
"s. c #99664A",
"d. c #9A6A55",
"f. c #946F4F",
"g. c #A86748",
"h. c #B56846",
"j. c #BA7647",
"k. c #A56754",
"l. c #B67659",
"z. c #AD7151",
"x. c #874368",
"c. c #964768",
"v. c #894376",
"b. c #994578",
"n. c #94546C",
"m. c #A74676",
"M. c #B64977",
"N. c #B85477",
"B. c #AD516E",
"V. c #956F66",
"C. c #B07465",
"Z. c #D25752",
"A. c #C77848",
"S. c #D0744A",
"D. c #E77644",
"F. c #CD527A",
"G. c #CB736B",
"H. c #F26C6E",
"J. c #C43F42",
"K. c #778638",
"L. c #7C855D",
"P. c #348479",
"I. c #938E38",
"U. c #B19635",
"Y. c #B6AC36",
"T. c #B29712",
"R. c #D6AB14",
"E. c #EFB70D",
"W. c #D9843C",
"Q. c #D1893B",
"!. c #E6853B",
"~. c #F59239",
"^. c #CDB430",
"/. c #E3A622",
"(. c #F8CC0D",
"). c #F5D92F",
"_. c #E1D223",
"`. c #918F4B",
"'. c #B09050",
"]. c #B5B04C",
"[. c #B4876E",
"{. c #DA8746",
"}. c #CF8A50",
"|. c #E58946",
" X c #F48944",
".X c #F99647",
"XX c #ED944F",
"oX c #CAB849",
"OX c #FAA650",
"+X c #C89074",
"@X c #F79569",
"#X c #EEA573",
"$X c #DFB279",
"%X c #B5CA4B",
"&X c #D4CA4C",
"*X c #F0D14D",
"=X c #FAE84E",
"-X c #F8EB64",
";X c #F2CA6B",
":X c #185A8A",
">X c #2A5B8F",
",X c #107090",
"<X c #1174AC",
"1X c #276BA4",
"2X c #2C639C",
"3X c #455B84",
"4X c #425E96",
"5X c #4A6386",
"6X c #4F6790",
"7X c #696B8A",
"8X c #6D578B",
"9X c #0E72CE",
"0X c #1D65CF",
"qX c #A83E86",
"wX c #C83D8C",
"eX c #974D81",
"rX c #A84683",
"tX c #B84788",
"yX c #B44E8F",
"uX c #99619E",
"iX c #C64A88",
"pX c #C85586",
"aX c #D85786",
"sX c #C74A96",
"dX c #D84B99",
"fX c #D55394",
"gX c #ED5692",
"hX c #D64DA7",
"jX c #E753AA",
"kX c #F050B0",
"lX c #EA7094",
"zX c #F86CCA",
"xX c #098EB5",
"cX c #2C91A0",
"vX c #62929C",
"bX c #0397C6",
"nX c #088ED3",
"mX c #02A7D9",
"MX c #04AACD",
"NX c #0992E5",
"BX c #02AFE9",
"VX c #32A4D7",
"CX c #65ABC5",
"ZX c #9FA29D",
"AX c #D19987",
"SX c #D4AA92",
"DX c #EBB493",
"FX c #E8BCA7",
"GX c #DEA2A2",
"HX c #F0C49B",
"JX c #F7C8A9",
"KX c #F8D6BA",
"LX c #F0CAB0",
"PX c #F7E1BC",
"IX c #F3D4C4",
"UX c #FDE2C9",
/* pixels */
"] / s i a >X9X0X2X9X:XeXv.q.I iXpXpXaXm.m.P +.w.c.aXc.F.M.c.0.U w.dXrXd P z i.p.S.6.>.A.y.5.4...XXA.-.s.{.D.M :.-.1..X(.E.R.T.E.",
",X/ u ) <X9X1X2X9X2XK wXq.x.0.e.gXF.aXF.0.W iXc.F.B.N.F.c.F.R R iXm.z T s 0 a.{.:.~.7.1.-.j =.|.'.<.A.g.-.D.;.=.-.N 1.R.R.R.E.(.",
",X:X<XnX<X2X9X9X2X8XW yXwXO.w.w.gXiXpXgXiXrXc.F.M.N.F.x 7 7 O & O O & U P V :. X2.<.XX.X7.-.|.S.:.A.h.j.l.h.s.:.W.h.{ 3.R.E.R.U.",
"bXxX<X:X,XnXNX2XU sXb.yXdXT m.Y dXfXM.fXgX0.B.N.B.M.7     o   * X o   O & <.7.<..X2.1.j.;.D.!.z  .h.j.t.<.z.-.3..XS.N 2.R.T.T.R.",
",X,X<XmXBXVX' J L sXyXM.gXc.w.W e.jXiXtXb.c.F.M.B.7   X O o O   @ o o o   O {.2.>..X|.B <.XXC u B >.~.S.<.A.p.m -.,.<.{ U.R.E.E.",
"<XxXxXxX4X+.T d d yXiXm.gXF.9.w.T hXkXw.c.F.m.M.x * * O O X   * . o o   O + h |.A.1.A.;. X1.g z =.y.1.|.y.'.p.V S.XX6.N Q.(.R.T.",
"o.n P T e.rXyXU z e.fXv.gXgX9.0.T w.dXc.F.B.N.E * y y * = *   o o X o   $ o   ;..XQ.B -.|.l 0 C  X}.h.{.u.A.y.B g.h.-.h.u.,.I.^.",
"rXI 9.n.fXtXiXP O.W gXb.F.gXiXR b.E R N.F.B.B.f u f & g * X o o X   X o o O o X -..X-.D.:.8 u S..X1.l.{.s.A.-.B g.2. X!.V ].&XU.",
"x.q.rXN.F.yXjXT eXT aXpXB.gXfXv.0.0.c.aXn.F.L d y 8 g O O o o   o o     * o * X k >.C !.N - 0 ;.|.<.}.Q.<.2.p.} g.S.2.p.t.].U.T.",
"c.w.b.pXaXyXgXR qXm.c.gXM.aXgXfXw.c.pXB.B.R L d a y y * X * o       * O     *   - 1.k.7.z p B B 5.>. Xg.A.h.-.N g.j.g.W.A.,.).(.",
"c.x.O.N.aXN.gXc.q.x.i.gXyXN.gXdX9.N.F.9.I x.I n d y y & o O O - - l m N k =   * = C N N = C D.<.1.1..X-.S.p.;.} {.|.XXS.-...].U.",
"c.v.R B.gXB.aXF.P m.T tXkXtXF.pXM.aX| P 0.U L l s u u  .f.s.d.s.s.y.-.y.t.B - o * N C p 8 3.1.5.g.{.2.3.5.k.;.m f.g.2.<.{.=.f.].",
"B.b.O.n.gXM.pXgXT rXW m.kXdXN.pXgX| L I c.| { f l ..SXJXHXSXl.l.j.z.k.g.d.V. .o o - =.p N 6.<.S.p. X-.6.h.h. .A.XX!.XXXX.Xu.Z U.",
"N.b.v.x.gXF.tXgXc.q.tXW yXyXB.aXi.d b.0.L pXP y [.KXLXAX[.[.+X[.[...N c V d.u.= % 2 a 2 B >.7.1.Q.1.p.!.-.5.M l.XXXX.XXX2. .^.(.",
"sXx.b.O.F.aXrXgXtXv.iXR T b.gXn.J T T R iXgX{ { HXFX[. .z c C.[.t.- - h h V d.- O y y y j s.{.p.~.;.6.7.g.3.j t.,.l.z.k.1.g.I.Y.",
"hXx.m.O.F.lXrXjXjXO.R 0.m.gXn.l I w.P M.gXx.y ..IXLXSX[.B =.SX+X;.k k v  .t.k.j O f y y l  X1.|.h.-.~.y.j.;.s..X}.A.}.}.~.1...^.",
"lXyXb.O.n.gXpXtXjXW P tXdXc.d W dXz m.kXrX| f. .IXJX[.V.x c AX+XC h 7 j P r.z.l - l y f 5.6.A.!.*.!.6.-.6.l  .D.XXOX~..XS.M '.).",
"} | P P | F.aX| T tXjXiX| G R 0.W b.jXtXU c.JX[.KXLXSXAXr.s.JX+X-.B c C r.r.f.V g.v g v 6.1.~.<.g..X-.A.1.c 6.A.s.j.l.g.g.f.I.&X",
"I pXrXv.x.m.fXyXdXhXb.x.{ z hXq.Y jXhXl c.yXHXLXLXKXSX+X+XHXUXG.y.d.B C *.y.d.g.C.k 0 i ;.!.}.:.XX6.t.!.N C g.!. X|.}.{.{.<.^.).",
"I sXkXkXjXkXkXhXtXw.m.0.R rX0.0.jXsXR w.w.eX$XDXKXKXJX}.}.FXUX+Xy.d.;.v t.z.k.u.;.z n ; 5.~.-.W.~.-.5.3.j :.1.s.p.A.{.{.<...&X).",
"n P b.tXsXiXm.x.rXiXO.L q.b.Y dXhXT I wXE ,XZX#XLXIXUXAXz.DXFX+Xy.d.y.i.l.[.d.=.*.L i B  X>.7.OXj.<.D.c j.:.>.W.S.<.z.6.A.N I.Y.",
"} O.eXb.b.b.tXhXrXO.R b.W z fXdXY T tXn >XBXCXDXLXKXPXAXp.FXLX[.y.u.u.y.z.z.d.:.#.! y m :.2.OXA.C 3.c ;.1.~.A.-.2.XX X{.t.`.*X).",
"@.b.kXkXjXjXsXQ L P hXW Y dXdXP q.v.E | VXmXcXFXGXJXHXl.AXIXLXC.u.d.t.V t.s.k.#.1X! y i 2.OX5.c y l f S.j.3.~.|.2.<.g.g.m K.&XE.",
"L.d 0.v.x.R T m.b.q.E x.hXsXT T q.T R zXVX( xX<XZXKXDXg.C.SXSX+XV.s.B v ..g.d.MX<X,Xp 3..Xh.j 8 9 c ;.l W.5.<.|.~.~.|.~.p.,.].Y.",
"ZXL e.b.eXv.m.x.O.Y yXkXrXT O.c.d x.zXGX^ u / ! 7XKXHXC.r.AXFXSXZXV.c C g.-.V.<X<X,Xy B C f y i N x A.m M ~.W.1.1.5.A.r. .*X).(.",
"ZXP O.x.tXT O.W rXjXjXv.L b.v.L tXkXC./ G s ( :X[ IXHXSXFXIXGXk.y.y.u.s.f.k.#.] mX] - p y j u l !.z z 7.Z M 2. XD.7.1.B V Y.^.oX",
"ZXd T x.q.tXhXkXjXtXP W iXL Y sXhX9.i  .a +.VX,X( ZXJXLXJXUXKX[.C.C.k.d.f.k.o.bXBXG ; s i 2.:.f A.7.y V D.3.C B 1.5.3.C oX_.^.^.",
"ZXs sXkXkXkXdXb.T T rXW R O.jXhXi.s.{ y.R dXO.m.o.vXDXLXKXIXDX[.C.k.y.V.d.=.[ BX,Xy d 1.v Q.~.l B ~.B 8 ;.!..Xj.V z y m *X).).(.",
"ZXd v.iXb.| | Y w.rX0.P rXjXb. .}.{.i. .eXq.sXsXI vXHXFXKXUXFXG.g.g.f.t.=.u.cXxXn i P  Xs.r.OXh.y A.!.m s N <.!. X2.M ..I.Y.^._.",
"ZXs L P Y 0.m.dXW O.0.jXhXc.V A.OXQ.r.T z tXqXO.yXuXKXDXDXLXSXC.l.t.V V t.l.@.MXP...v <.{.B S.~.N x Q.W.m 0 y M { l Z =X*X&XoXY.",
"vXJ tXeXyXtXO.I x.sXkXb.{ j.XX2.OXQ.| P n tX0.kXkXn.KXKXDX[.d.t.C m k V s.z.h xXBXcX#._ s. .M D.A.y a g.1.k a y y M `.Y._.=X=X=X",
"$.l c.| I I b.sXkXsXO.h.1.{.@Xg.~./.t.{ l | fXhXeXM LXKXJXDX[.V C N i.k.k.f.= S mXmXMXxX:X_ K } { j s u j j a u ; oX*X&X].`.Y.oX",
"} d { w.yXjXkXhXn.r.V OX}.5.OXl.XXE.U.B.j | kXw.8X= [.JXJXJXDX[.f.,.g.k.s.C O & ! ,XxXBXmXbXxX1X:X' _ ) ! H H ~ ~ ..%X&XU.C j M ",
"d | jXkXdXiXb.| 3.{.y.XX@X2.OXG.A.E.R.f.U x.eXJ 7Xy h +XFXJXDX+Xl.C.g.u.B h = 5 & 2 S ] xXMXmXmXNXNX9X9X9X9XnXnXnXnXVXvXZXZXZXZX",
"J Q eXw.yXO.a.F.t.{.s.j.OXh.XX|.G.~.E.U. .o.A D 6XG O c [.+XAX+XG.u.s.=.k - = F & o X 1 S ( <XxXxXxXxXnX9X0X9X<XnXnXnXNXNXNXVXVX",
"d ..M  .GXG.A.lXN.OX|.t.OXA.|.OXG.G.d.M S _ q D 6XG O - C s.l.[.z.y.=.B h - d F % + + $ & & r ! ,XxXbXxX<XxX<X<X1X1X1X1X1X1X2X2X",
"..-X,.`.*X}.g.@XG.g.h.t.}.OXk...{ A S 5 p ^ A H X.+ $.= h B y.s.s.k.s.C b j ^ A . . @ $ @ X @ $ < t ( xXmXmXbXxXxX<X<X<X1X1X2X2X",
"].-X} K.-X*Xg.XXH.u..X.Xi...K A r 9 r e S ~ D d ^   #.L h v *.V t.s.s.c c a H G # # @ % X X @ @ # & & : S ,XbXmXmXmXnXnX9X9X9X9X",
"-X*X$...-X-Xh.S.@XN.d..._ ) G F 0 2 p D F H F K J o 2 ^ l b *.B V y.-.B x 2 H p # # % $ X @ % % $ : 3 , & 2 ( xXbXnXnX9X9X9X0X0X",
"-XoX'.M &X-X}.g.@XD.o.' _ ^ p H p > 0 D H F r ~ D   2 S { c C *.*.r.p.=.& 3 G + * + # @ + @ $ % % 2 1 < < 1 e ! ( :X>X:X<X9XnXnX",
"%XoX].`.&X=XOXu..X+XX.X.^ K D p H : 1 G H H A e 0 < G + p v ;.v v =.h.N 3 2 8   . @ @ @ $ $ $ $ 2 > , 2 $ > q >X:X) H J G ^ ! [ ",
"].*X].).^.;XOXA.j.7Xo._ _ G w e _ 4 , G F H A q 9 A ^ 2 . l c v B *.y.a , p $ . + $ $ $ $ $ $ : $ , 4 2 : > 3 ' BXbXbX<X,X) d i ",
"-X&XR.(.Y.'.OXOX#.4XX.^ _ G q e _ G > D H H D e 3 9 H G . # L c v B N p 8 > + + # $ 2 > : $ : : $ 3 4 2 : : , H xXbXBXBXBXBXMXbX",
"&XY.(.T.].`.{.#X6X>X3XK H H q w _ _ A A ^ F A 0 A 2 F H # 1 G h c B L G & + X + : : 1 1 : : > : $ 3 1 $ : $ $ A G J ! [ cXxXxXmX",
"].(.R.I.].$.s.[.4X_ >XH r ) S 0 ` _ H F H F A 4 e D 3 ~ 6 J ZXp k B } :   + @ & , > , 1 : : : $ 2 9 1 @ : $ $ 9 f u f d cX<X,X] ",
"R.(.U.'.`.].^.#.X.o.` ) 4 ~ F 0 ' ` H H F F w e : p H H A & y 1 k N 0   . * @ 2 1 , , > > > : $ 2 3 : @ : $ $ 1 G a d a ] BXmXbX",
").U.oX&XZ (._.5XX.o.o.' > G H w ' 3XK F F F 9 w 9 9 q ^ e 1 0 , - a .   $ # : < 1 1 , > , : : : 1 3 : @ : % & 1 w i d i a ( ' o.",
"].I.%X'.R.(.].X.3X' o.X.: 0 ~ H _ X.) H F A F q 9 t 4 p H A q 2 = 5 o X + < 1 , , 4 1 > > : : : 1 4 : @ > + @ 1 S P r.k E z Z.G.",
"`.oX&XU.(.^.#.5X3X_ ' X.# : _ _ ) X._ H F F A r q 3 9 , A G 9 # & @ + @ : 1 9 , 4 4 1 : > < : 1 , , $ $ $ @ # 2 t L p.p.*.l z i.",
"=X].}.(._.N X.6X3X_ ) ` $ $ _ 3X) ' _ H H F A w q q 9 9 4 0 : # 2 @ . $ 1 1 4 9 1 1 1 > > : > 1 , , % % $ + + : p A  .Z.l 8 f *.",
"].].E.(.K.M @.6XX._ K ` : . ~ 3XX.X._ H H F F e q 9 1 1 < q 1 # $ + : 4 4 9 e 9 9 , , 1 : : , , < 1 + # $ + + $ 8 D z Z.z p y y ",
"`.(.(.`.`.].#.6XX._ K ' 9   G 3XX.` _ ~ H F G w q 0 1 1 9 < # & & . : 9 9 9 q 4 9 , , 1 : : > < : 2 + + % X + $ 8 S d Z.r.1 y a ",
"(.(.I.L.&XoXZX4XX.H H ' F   8 3X5XX.' _ H F F w w 1 > : < < : 2 . $ 9 3 A A q q 9 , , 1 : > , < # 2 # + @ X + $ 4 3 i.p.a.i.P y ",
"(.^...I.].$XuX4XX.H H ' )   & 3X3XX.` _ ~ F D A w 9 1 0 : 1 : 2 $ # 1 3 A e 9 9 4 , , 1 > 1 , , # $ % X + + + $ 9 4 n.h.*.-.k a ",
"^.&XI.'.`.GXuX5X3XH e ) ' # 2 5XH _ ` ' ) H F A 9 w : , , > : #.} $ < e F q q 9 1 , , < > , , , $ + @ + X + . $ 2 4 4 G.H.Z.*.i ",
"(.R.`.&XV.kX7X4X3XH 0 H ` : & S F X.5X` ) H F A e 4 9 , < , $ J s # 9 q q 9 0 1 , 1 , < > , < , $   @ @ + + . $ , 5 t P S.a.v a.",
"R.I.&XL.n.kX#.>X5XH A p _ A   $ 3X3X3X` _ ^ H A 9 9 1 1 > : 9 < # 1 , 9 9 q 9 , 9 1 > : > > > > : . X @ @ X . $ 5 < q a Z.i v J.",
"oXoX&X].ZXzX8X` X.` q 1 ^ A   1 3X3X3X` _ ) H F q 4 1 1 1 1 9 , : 1 1 9 9 9 9 9 4 , > : > > > > > . X @ + X . $ 6 w t p v c &.&.",
"`.`...`.$.n.8X3XX.X.A # F A   0 3X3X` ` ' _ H H e 3 1 , 4 1 1 1 1 4 , q q q 9 9 1 , , : : : , < , + X + + X . : , 8 2 1 *.J.&.&.",
",.Y.*XSXx.sXuX` X.X.H : 9 A   0 5X>X` ` ` _ K H A 9 9 > 1 , , 9 , 9 3 q e e 9 4 , , , > : : : , 1 + X + + . X : < 8 2 2 S.D.&.c ",
"^.*XDXzXjXkXuX' X.5XA 2 1 9 . q 6X` ` ` ` _ ^ H D w w , 1 1 , 9 , w 9 q w e 9 , , , , , > : < , , # X + X . + : 5 < > 5 =.;.v i ",
"%XlXjXrXe.rX8X` X.5XA $ : 1   F 6X` ` ` ' _ _ H A w e 9 4 , 4 4 1 w 9 q q e q 3 , > > > > : : : , % X +     + : : 1 : 9 M i - r.",
"#XhXn.N.hXfX7X` X.X.~ + @ 2   ~ 5X` ` X.' _ _ H A q q q 9 , 9 4 1 w 9 9 9 w 0 9 , > : : > > > : , % . X     @ : $ & < 8 v j a.Z.",
"G.n.F.gXjXfX7X3X` X.' & . + @ ) 3X` X.X.' _ _ H F q q w w , w 9 4 0 4 q 9 9 9 1 > : : : > > > : , # . X X . @ : , $ 3 3 %.J.r.Z."
};
